************************************************* ****************************
The Fox And The Hound DVDRiP XViD
************************************************** *****************************

-------------------------------------------------------------------------------
General Information
-------------------------------------------------------------------------------
Type.................: Movie



Movie Information....: http://www.imdb.com/title/tt0465997/

-------------------------------------------------------------------------------
Post Information
-------------------------------------------------------------------------------
Posted by............: SB0

-------------------------------------------------------------------------------
Release Notes
-------------------------------------------------------------------------------
General
Complete name :The Fox And The Hound 2 DVDRiP XViD A TEAM 
STUDIOUS.avi
Format : AVI
Format/Info : Audio Video Interleave
File size : 700 MiB
Duration : 1h 6mn
Overall bit rate : 1 471 Kbps
Writing application : VirtualDubMod 1.5.4.1 (build 2178/release)
Writing library : VirtualDubMod build 2178/release

Video
Format : MPEG-4 Visual
Format profile : Streaming Video@L1
Format settings, BVOP : Yes
Format settings, QPel : No
Format settings, GMC : No warppoints
Format settings, Matrix : Custom
Codec ID : XVID
Codec ID/Hint : XviD
Duration : 1h 6mn
Bit rate : 1 355 Kbps
Width : 704 pixels
Height : 400 pixels
Display aspect ratio : 16/9
Frame rate : 25.000 fps
Resolution : 24 bits
Colorimetry : 4:2:0
Scan type : Progressive
Bits/(Pixel*Frame) : 0.192
Stream size : 645 MiB (92%)
Writing library : XviD 1.2.1 (UTC 2008-12-04)

Audio
Format : MPEG Audio
Format version : Version 1
Format profile : Layer 3
Codec ID : 55
Codec ID/Hint : MP3
Duration : 1h 6mn
Bit rate mode : Variable
Bit rate : 103 Kbps
Minimum bit rate : 112 Kbps
Channel(s) : 2 channels
Sampling rate : 44.1 KHz
Resolution : 16 bits
Stream size : 49.2 MiB (7%)
Alignment : Aligned on interleaves
Interleave, duration : 26 ms (0.65 video frame)
Interleave, preload duration : 184 ms
Writing library : LAME3.98r
Encoding settings : ABR

Cast
(Credited cast)
Jonah Bobo	... Todd (voice)
Harrison Fahn	... Copper (voice)

Patrick Swayze	... Cash (voice)

Reba McEntire	... Dixie (voice)
Rob Paulsen	... Chief (voice)
Vicki Lawrence	... Granny Rose (voice)
Jim Cummings	... Waylon / Floyd (voice)

Jeff Foxworthy	... Lyle (voice)
Kath Soucie	... Zelda (voice)

Stephen Root	... Talent Scout (voice)
Hannah Farr	... Olivia Farmer (voice)
rest of cast listed alphabetically:
Jeff Bennett	... Additional Voices (voice)

Grey DeLisle	... Various (voice)

Krista Swan	... Additional Voices (voice)
Russi Taylor	... Various (voice)

April Winchell	... Various (voice)
 
http://img820.imageshack.us/img820/6822/84062759.jpg
